<?xml version="1.0" standalone="no"?>
<!DOCTYPE svg PUBLIC "-//W3C//DTD SVG 20010904//EN"
 "http://www.w3.org/TR/2001/REC-SVG-20010904/DTD/svg10.dtd">
<svg version="1.0" xmlns="http://www.w3.org/2000/svg"
 width="1310.000000pt" height="476.000000pt" viewBox="0 0 1310.000000 476.000000"
 preserveAspectRatio="xMidYMid meet">

<g transform="translate(0.000000,476.000000) scale(0.100000,-0.100000)"
fill="#000000" stroke="none">
<path d="M4080 2280 c0 -1664 2 -1880 15 -1880 13 0 15 216 15 1880 0 1664 -2
1880 -15 1880 -13 0 -15 -216 -15 -1880z"/>
<path d="M7860 2484 c0 -1284 -1 -1248 61 -1364 37 -69 87 -119 157 -154 47
-24 140 -46 194 -46 l28 0 0 1139 c0 752 -4 1166 -11 1218 -11 80 -41 161 -85
224 -51 75 -162 131 -284 145 l-60 7 0 -1169z"/>
<path d="M5232 2458 c3 -1130 4 -1165 23 -1218 49 -137 155 -237 298 -282 72
-23 74 -23 707 -23 l635 1 96 26 c279 76 474 260 545 513 25 92 31 315 9 410
-45 204 -195 379 -392 460 l-54 22 59 36 c115 71 209 205 243 347 20 83 15
260 -10 353 -61 230 -235 407 -466 476 -126 37 -217 41 -967 41 l-728 0 2
-1162z m1530 659 c133 -65 197 -213 154 -359 -21 -72 -87 -147 -158 -179 -53
-24 -56 -24 -450 -27 -368 -3 -398 -4 -398 -20 1 -59 25 -166 49 -217 51 -110
130 -178 251 -217 57 -18 99 -21 335 -27 265 -6 271 -7 327 -33 159 -74 243
-253 193 -413 -24 -73 -101 -160 -177 -197 -93 -46 -153 -50 -585 -45 -421 5
-472 10 -533 55 -51 38 -50 11 -50 890 l0 823 493 -3 492 -3 57 -28z"/>
<path d="M2940 2778 l0 -323 -213 -213 -212 -212 -386 0 -386 0 -203 -317
c-112 -175 -208 -330 -214 -345 -10 -28 -5 -34 204 -243 l215 -215 385 0 385
0 213 213 212 212 0 386 0 385 -35 34 c-19 19 -35 38 -35 44 0 5 27 38 60 72
92 96 93 99 98 382 5 293 -1 379 -32 424 -12 18 -29 34 -39 36 -16 3 -17 -20
-17 -320z"/>
<path d="M11800 2535 c-8 -2 -49 -9 -90 -15 -97 -16 -224 -59 -303 -103 -136
-77 -217 -177 -266 -331 -45 -141 -56 -224 -56 -411 0 -193 9 -240 65 -360 99
-213 265 -340 498 -380 76 -13 168 -15 549 -13 l458 4 74 27 c144 53 228 118
273 212 15 33 28 74 28 92 l0 32 -647 3 -648 3 -59 24 c-101 40 -176 126 -176
200 l0 31 508 0 c621 0 688 8 864 102 189 101 269 313 201 533 -49 158 -182
267 -398 327 -75 21 -103 22 -470 24 -214 1 -397 1 -405 -1z m872 -413 c100
-40 124 -98 65 -157 -59 -59 -59 -59 -676 -63 l-564 -3 7 23 c3 13 6 30 6 39
0 27 54 98 96 127 84 57 126 62 589 59 412 -2 421 -3 477 -25z"/>
<path d="M8602 2013 c3 -469 4 -479 27 -548 42 -128 88 -203 180 -295 68 -67
105 -96 176 -132 200 -102 341 -128 705 -128 354 0 501 27 688 125 195 104
303 231 373 440 23 69 23 79 27 543 l3 472 -223 -2 -223 -3 -5 -440 c-5 -407
-6 -443 -24 -475 -71 -131 -194 -202 -403 -230 -132 -18 -402 -8 -511 19 -162
41 -276 120 -324 225 -23 50 -23 57 -26 479 l-3 427 -220 0 -220 0 3 -477z"/>
<path d="M9617 653 c-4 -3 -7 -52 -7 -108 0 -86 3 -104 18 -118 10 -10 24 -17
30 -17 17 0 15 27 -3 34 -12 4 -15 26 -15 111 0 96 -5 117 -23 98z"/>
<path d="M10737 653 c-4 -3 -7 -23 -7 -44 l0 -37 -40 5 c-58 8 -80 -14 -80
-82 0 -70 18 -86 94 -83 l56 3 0 123 c0 112 -5 134 -23 115z m-23 -109 c11 -4
16 -19 16 -50 0 -38 -3 -44 -24 -50 -46 -11 -61 -2 -64 40 -2 21 -1 44 2 52 6
14 42 19 70 8z"/>
<path d="M12753 653 c-7 -3 -13 -10 -13 -17 0 -8 16 -13 48 -13 44 0 72 10 72
26 0 8 -88 11 -107 4z"/>
<path d="M8580 635 c0 -10 11 -15 35 -15 l35 0 0 -105 c0 -87 3 -105 15 -105
12 0 15 18 15 105 l0 105 40 0 c29 0 40 4 40 15 0 12 -17 15 -90 15 -73 0 -90
-3 -90 -15z"/>
<path d="M10160 635 c0 -8 7 -15 15 -15 8 0 15 7 15 15 0 8 -7 15 -15 15 -8 0
-15 -7 -15 -15z"/>
<path d="M11180 530 c0 -73 4 -120 10 -120 6 0 10 47 10 120 0 73 -4 120 -10
120 -6 0 -10 -47 -10 -120z"/>
<path d="M11530 630 c-11 -11 -20 -27 -20 -35 0 -8 -7 -15 -15 -15 -8 0 -15
-7 -15 -15 0 -8 7 -15 15 -15 12 0 15 -14 15 -70 0 -56 3 -70 15 -70 12 0 15
14 15 70 0 68 1 70 25 70 16 0 25 6 25 15 0 9 -10 15 -26 15 -33 0 -30 33 4
38 12 2 22 10 22 18 0 21 -37 17 -60 -6z"/>
<path d="M8794 566 c-15 -11 -19 -27 -19 -71 0 -69 17 -85 87 -85 35 0 48 4
48 14 0 11 -15 16 -52 18 -41 2 -54 7 -56 21 -3 14 4 17 45 17 27 0 54 5 61
12 19 19 15 66 -7 78 -28 14 -84 12 -107 -4z m96 -36 c0 -17 -7 -20 -45 -20
-31 0 -45 4 -45 13 0 21 11 27 52 27 31 0 38 -3 38 -20z"/>
<path d="M9008 569 c-27 -15 -26 -134 1 -149 25 -13 77 -13 102 0 23 13 26 40
4 40 -8 0 -15 -5 -15 -11 0 -6 -17 -9 -42 -7 l-43 3 0 50 0 50 43 3 c25 2 42
-1 42 -7 0 -6 7 -11 15 -11 22 0 19 27 -4 40 -25 13 -81 13 -103 -1z"/>
<path d="M9241 571 c-8 -5 -20 -7 -28 -4 -10 4 -13 -12 -13 -76 0 -47 4 -81
10 -81 6 0 10 26 10 59 0 66 13 84 57 79 27 -3 28 -5 31 -70 2 -52 6 -68 17
-68 12 0 15 15 15 65 0 52 -4 69 -20 85 -21 21 -55 26 -79 11z"/>
<path d="M9417 562 c-24 -26 -23 -113 1 -135 26 -23 94 -22 115 1 24 26 23
113 -1 135 -26 23 -94 22 -115 -1z m98 -67 l0 -50 -40 0 c-39 0 -40 1 -43 39
-5 58 2 68 45 64 l38 -3 0 -50z"/>
<path d="M9758 569 c-14 -8 -18 -24 -18 -74 0 -72 11 -85 70 -85 59 0 70 13
70 85 0 53 -3 66 -19 75 -25 13 -81 13 -103 -1z m98 -43 c3 -13 4 -37 2 -52
-3 -26 -7 -29 -42 -32 -43 -4 -56 7 -56 50 0 47 9 58 51 58 32 0 40 -4 45 -24z"/>
<path d="M9968 569 c-14 -8 -18 -24 -18 -74 0 -55 3 -66 21 -76 12 -6 39 -9
61 -6 36 5 39 3 36 -16 -3 -19 -10 -22 -55 -25 -38 -2 -53 -7 -53 -18 0 -19
89 -19 116 0 16 12 19 29 22 121 4 105 3 106 -16 96 -14 -7 -23 -8 -27 -1 -8
13 -65 12 -87 -1z m90 -31 c7 -7 12 -26 12 -43 0 -39 -16 -55 -56 -55 -33 0
-44 13 -44 55 0 42 11 55 44 55 18 0 37 -5 44 -12z"/>
<path d="M10276 562 c-10 -12 -16 -36 -16 -69 0 -68 19 -84 94 -81 l56 3 0 81
0 80 -59 2 c-45 1 -62 -2 -75 -16z m88 -18 c11 -4 16 -19 16 -50 0 -38 -3 -44
-24 -50 -46 -11 -61 -2 -64 40 -2 21 -1 44 2 52 6 14 42 19 70 8z"/>
<path d="M10836 562 c-10 -12 -16 -36 -16 -69 0 -68 19 -84 94 -81 l56 3 0 81
0 80 -59 2 c-45 1 -62 -2 -75 -16z m88 -18 c11 -4 16 -19 16 -50 0 -38 -3 -44
-24 -50 -46 -11 -61 -2 -64 40 -2 21 -1 44 2 52 6 14 42 19 70 8z"/>
<path d="M11270 495 c0 -69 3 -85 15 -85 12 0 15 13 15 58 0 64 11 82 51 82
32 0 39 -14 39 -86 0 -30 5 -54 10 -54 6 0 10 32 10 75 0 63 -3 76 -19 85 -25
13 -68 13 -76 0 -4 -7 -13 -7 -26 0 -18 10 -19 7 -19 -75z"/>
<path d="M11674 566 c-15 -11 -19 -27 -19 -71 0 -65 17 -85 73 -85 61 0 72 13
72 85 0 53 -3 66 -19 75 -28 14 -84 12 -107 -4z m100 -32 c9 -22 7 -67 -3 -82
-5 -8 -23 -12 -47 -10 -37 3 -39 5 -42 42 -2 21 -1 44 2 52 8 20 82 19 90 -2z"/>
<path d="M11911 571 c-8 -5 -20 -7 -28 -4 -10 4 -13 -12 -13 -76 0 -47 4 -81
10 -81 6 0 10 26 10 58 0 63 11 82 47 82 14 0 23 6 23 15 0 17 -27 20 -49 6z"/>
<path d="M12065 570 c-3 -5 -12 -7 -20 -3 -12 4 -15 -9 -15 -76 0 -94 18 -110
22 -20 3 65 19 88 52 76 12 -5 16 -20 16 -72 0 -51 3 -65 15 -65 12 0 15 14
15 64 0 49 4 65 16 70 39 15 44 8 44 -64 0 -56 3 -70 15 -70 12 0 15 15 15 75
0 71 -2 76 -25 87 -19 8 -31 8 -52 -1 -18 -8 -29 -9 -37 -1 -13 13 -53 13 -61
0z"/>
<path d="M12324 565 c-28 -20 -27 -121 0 -141 22 -16 82 -19 91 -4 3 5 12 7
20 3 12 -4 15 9 15 74 l0 79 -54 2 c-32 1 -61 -4 -72 -13z m91 -70 l0 -50 -40
0 c-39 0 -40 1 -43 39 -5 58 2 68 45 64 l38 -3 0 -50z"/>
<path d="M12538 569 c-14 -8 -18 -24 -18 -74 0 -68 12 -85 59 -85 24 0 29 -28
6 -36 -15 -6 -21 -34 -7 -34 20 0 52 34 52 54 0 13 7 26 15 30 8 3 15 12 15
21 0 8 -7 15 -15 15 -8 0 -15 -5 -15 -11 0 -6 -17 -9 -42 -7 l-43 3 0 50 0 50
43 3 c25 2 42 -1 42 -7 0 -6 7 -11 15 -11 22 0 19 27 -4 40 -25 13 -81 13
-103 -1z"/>
<path d="M12748 569 c-27 -15 -26 -134 1 -149 25 -13 78 -13 86 0 3 5 12 7 20
3 12 -4 15 8 15 73 l0 79 -53 2 c-28 1 -60 -2 -69 -8z m90 -31 c7 -7 12 -26
12 -43 0 -39 -16 -55 -56 -55 -33 0 -44 13 -44 55 0 42 11 55 44 55 18 0 37
-5 44 -12z"/>
<path d="M12958 569 c-14 -8 -18 -24 -18 -74 0 -72 11 -85 72 -85 56 0 73 20
73 85 0 44 -4 60 -19 71 -23 16 -83 18 -108 3z m97 -74 l0 -50 -39 -3 c-43 -4
-56 7 -56 50 0 50 9 59 54 56 l41 -3 0 -50z"/>
<path d="M10167 563 c-4 -3 -7 -39 -7 -80 0 -58 3 -73 15 -73 12 0 15 16 15
80 0 73 -6 91 -23 73z"/>
</g>
</svg>
